# xmcd
#
# Track frame offsets:
#	150
#	12920
#	23187
#	33895
#	45147
#	55637
#	67255
#	78197
#	88730
#	98372
#	109905
#	120687
#	133090
#	141560
#
# Disc length: 2023 seconds
# Revision: 2
# Processed by: cddbd v1.5.2PL0 Copyright (c) Steve Scherf et al.
# Submitted via: dBpowerAMP V12.0
#
DISCID=b107e50e
DTITLE=Susan Raye - A Portrait Of Susan Raye
DYEAR=1994
DGENRE=Country
TTITLE0=L. A. International Airport
TTITLE1=Put A Little Love In Your Heart
TTITLE2=One Night Stand
TTITLE3=Willy Jones
TTITLE4=Pitty, Pitty Patter
TTITLE5=When You Get Back From Nashville
TTITLE6=My Heart Has A Mind Of It's Own
TTITLE7=Watcha Gonna Do With A Dog Like This
TTITLE8=Heartbreak Mountain
TTITLE9=Happy Times Are Here Again
TTITLE10=Cajun Train
TTITLE11=Cheating Game
TTITLE12=I've Got A Happy Heart
TTITLE13=The Biggest Storm Of All
EXTD=
EXTT0=
EXTT1=
EXTT2=
EXTT3=
EXTT4=
EXTT5=
EXTT6=
EXTT7=
EXTT8=
EXTT9=
EXTT10=
EXTT11=
EXTT12=
EXTT13=
PLAYORDER=
